HIERARCHY
ROOT Hips
{
	OFFSET -1.283950 86.130447 4.402737
	CHANNELS 6 Xposition Yposition Zposition Zrotation Yrotation Xrotation 
	JOINT Spine
	{
		OFFSET 0.000000 8.814246 -2.080107
		CHANNELS 3 Zrotation Yrotation Xrotation
		JOINT Spine1
		{
			OFFSET 0.000000 8.844141 -0.000000
			CHANNELS 3 Zrotation Yrotation Xrotation
			JOINT Spine2
			{
				OFFSET 0.000000 11.682268 -0.000000
				CHANNELS 3 Zrotation Yrotation Xrotation
				JOINT Spine3
				{
					OFFSET -0.000000 11.746700 -0.000000
					CHANNELS 3 Zrotation Yrotation Xrotation
					JOINT Neck
					{
						OFFSET -0.000000 17.658264 0.000000
						CHANNELS 3 Zrotation Yrotation Xrotation
						JOINT Neck1
						{
							OFFSET -0.000000 5.101515 -0.000000
							CHANNELS 3 Zrotation Yrotation Xrotation
							JOINT Head
							{
								OFFSET 0.000000 5.101515 -0.000000
								CHANNELS 3 Zrotation Yrotation Xrotation
								JOINT HeadEnd
								{
									OFFSET -0.000000 11.655085 0.000000
									CHANNELS 3 Zrotation Yrotation Xrotation
									End Site
									{
										OFFSET 0.000000 0.000000 0.000000
									}
								}
							}
						}
					}
					JOINT RightShoulder
					{
						OFFSET -2.625389 11.175210 -0.000000
						CHANNELS 3 Zrotation Yrotation Xrotation
						JOINT RightArm
						{
							OFFSET 0.000000 10.434715 0.000000
							CHANNELS 3 Zrotation Yrotation Xrotation
							JOINT RightForeArm
							{
								OFFSET 0.000000 29.628420 0.000000
								CHANNELS 3 Zrotation Yrotation Xrotation
								JOINT RightHand
								{
									OFFSET 0.000000 22.857611 0.000000
									CHANNELS 3 Zrotation Yrotation Xrotation
									JOINT RightHandThumb1
									{
										OFFSET -2.867323 3.959563 2.944291
										CHANNELS 3 Zrotation Yrotation Xrotation
										JOINT RightHandThumb2
										{
											OFFSET 0.000000 3.350399 0.000000
											CHANNELS 3 Zrotation Yrotation Xrotation
											JOINT RightHandThumb3
											{
												OFFSET 0.000000 3.756509 0.000000
												CHANNELS 3 Zrotation Yrotation Xrotation
												JOINT RightHandThumb4
												{
													OFFSET 0.000000 3.147345 -0.000000
													CHANNELS 3 Zrotation Yrotation Xrotation
													End Site
													{
														OFFSET 0.000000 0.000000 0.000000
													}
												}
											}
										}
									}
									JOINT RightHandIndex1
									{
										OFFSET -0.086752 10.030893 2.345280
										CHANNELS 3 Zrotation Yrotation Xrotation
										JOINT RightHandIndex2
										{
											OFFSET -0.000000 4.061090 -0.000000
											CHANNELS 3 Zrotation Yrotation Xrotation
											JOINT RightHandIndex3
											{
												OFFSET -0.000000 3.248873 -0.000000
												CHANNELS 3 Zrotation Yrotation Xrotation
												JOINT RightHandIndex4
												{
													OFFSET 0.000000 2.639709 -0.000000
													CHANNELS 3 Zrotation Yrotation Xrotation
													End Site
													{
														OFFSET 0.000000 0.000000 0.000000
													}
												}
											}
										}
									}
									JOINT RightHandMiddle1
									{
										OFFSET 0.104102 9.502952 0.006768
										CHANNELS 3 Zrotation Yrotation Xrotation
										JOINT RightHandMiddle2
										{
											OFFSET -0.000000 4.568727 -0.000000
											CHANNELS 3 Zrotation Yrotation Xrotation
											JOINT RightHandMiddle3
											{
												OFFSET -0.000000 3.654981 0.000000
												CHANNELS 3 Zrotation Yrotation Xrotation
												JOINT RightHandMiddle4
												{
													OFFSET 0.000000 2.741236 -0.000000
													CHANNELS 3 Zrotation Yrotation Xrotation
													End Site
													{
														OFFSET 0.000000 0.000000 0.000000
													}
												}
											}
										}
									}
									JOINT RightHandRing1
									{
										OFFSET 0.086752 8.921708 -2.267442
										CHANNELS 3 Zrotation Yrotation Xrotation
										JOINT RightHandRing2
										{
											OFFSET 0.000000 4.061090 0.000000
											CHANNELS 3 Zrotation Yrotation Xrotation
											JOINT RightHandRing3
											{
												OFFSET 0.000000 3.654981 0.000000
												CHANNELS 3 Zrotation Yrotation Xrotation
												JOINT RightHandRing4
												{
													OFFSET 0.000000 2.741236 0.000000
													CHANNELS 3 Zrotation Yrotation Xrotation
													End Site
													{
														OFFSET 0.000000 0.000000 0.000000
													}
												}
											}
										}
									}
									JOINT RightHandPinky1
									{
										OFFSET -0.173504 7.976997 -4.467199
										CHANNELS 3 Zrotation Yrotation Xrotation
										JOINT RightHandPinky2
										{
											OFFSET -0.000000 3.350399 -0.000000
											CHANNELS 3 Zrotation Yrotation Xrotation
											JOINT RightHandPinky3
											{
												OFFSET 0.000000 2.842763 0.000000
												CHANNELS 3 Zrotation Yrotation Xrotation
												JOINT RightHandPinky4
												{
													OFFSET -0.000000 2.639709 0.000000
													CHANNELS 3 Zrotation Yrotation Xrotation
													End Site
													{
														OFFSET 0.000000 0.000000 0.000000
													}
												}
											}
										}
									}
									JOINT RightForeArmEnd
									{
										OFFSET 0.000000 0.000000 0.000000
										CHANNELS 3 Zrotation Yrotation Xrotation
										End Site
										{
											OFFSET 0.000000 0.000000 0.000000
										}
									}
								}
								JOINT RightArmEnd
								{
									OFFSET 0.000000 0.000000 0.000000
									CHANNELS 3 Zrotation Yrotation Xrotation
									End Site
									{
										OFFSET 0.000000 0.000000 0.000000
									}
								}
							}
						}
					}
					JOINT LeftShoulder
					{
						OFFSET 2.625389 11.175210 0.000000
						CHANNELS 3 Zrotation Yrotation Xrotation
						JOINT LeftArm
						{
							OFFSET 0.000000 10.813635 0.000000
							CHANNELS 3 Zrotation Yrotation Xrotation
							JOINT LeftForeArm
							{
								OFFSET -0.000000 28.724781 0.000000
								CHANNELS 3 Zrotation Yrotation Xrotation
								JOINT LeftHand
								{
									OFFSET 0.644384 25.716167 -0.328871
									CHANNELS 3 Zrotation Yrotation Xrotation
									JOINT LeftHandThumb1
									{
										OFFSET 2.867323 3.959563 2.944291
										CHANNELS 3 Zrotation Yrotation Xrotation
										JOINT LeftHandThumb2
										{
											OFFSET -0.000000 3.350399 0.000000
											CHANNELS 3 Zrotation Yrotation Xrotation
											JOINT LeftHandThumb3
											{
												OFFSET 0.000000 3.756509 0.000000
												CHANNELS 3 Zrotation Yrotation Xrotation
												JOINT LeftHandThumb4
												{
													OFFSET -0.000000 3.100000 -0.000000
													CHANNELS 3 Zrotation Yrotation Xrotation
													End Site
													{
														OFFSET 0.000000 0.000000 0.000000
													}
												}
											}
										}
									}
									JOINT LeftHandIndex1
									{
										OFFSET 0.086752 10.030893 2.345280
										CHANNELS 3 Zrotation Yrotation Xrotation
										JOINT LeftHandIndex2
										{
											OFFSET 0.000000 4.061090 -0.000000
											CHANNELS 3 Zrotation Yrotation Xrotation
											JOINT LeftHandIndex3
											{
												OFFSET -0.000000 3.248873 0.000000
												CHANNELS 3 Zrotation Yrotation Xrotation
												JOINT LeftHandIndex4
												{
													OFFSET 0.000000 2.639709 0.000000
													CHANNELS 3 Zrotation Yrotation Xrotation
													End Site
													{
														OFFSET 0.000000 0.000000 0.000000
													}
												}
											}
										}
									}
									JOINT LeftHandMiddle1
									{
										OFFSET -0.104102 9.502952 0.006768
										CHANNELS 3 Zrotation Yrotation Xrotation
										JOINT LeftHandMiddle2
										{
											OFFSET 0.000000 4.568727 -0.000000
											CHANNELS 3 Zrotation Yrotation Xrotation
											JOINT LeftHandMiddle3
											{
												OFFSET 0.000000 3.654981 0.000000
												CHANNELS 3 Zrotation Yrotation Xrotation
												JOINT LeftHandMiddle4
												{
													OFFSET 0.000000 2.741236 -0.000000
													CHANNELS 3 Zrotation Yrotation Xrotation
													End Site
													{
														OFFSET 0.000000 0.000000 0.000000
													}
												}
											}
										}
									}
									JOINT LeftHandRing1
									{
										OFFSET -0.086752 8.921708 -2.267442
										CHANNELS 3 Zrotation Yrotation Xrotation
										JOINT LeftHandRing2
										{
											OFFSET 0.000000 4.061090 0.000000
											CHANNELS 3 Zrotation Yrotation Xrotation
											JOINT LeftHandRing3
											{
												OFFSET -0.000000 3.654981 -0.000000
												CHANNELS 3 Zrotation Yrotation Xrotation
												JOINT LeftHandRing4
												{
													OFFSET 0.000000 2.741236 0.000000
													CHANNELS 3 Zrotation Yrotation Xrotation
													End Site
													{
														OFFSET 0.000000 0.000000 0.000000
													}
												}
											}
										}
									}
									JOINT LeftHandPinky1
									{
										OFFSET 0.173504 7.976997 -4.467199
										CHANNELS 3 Zrotation Yrotation Xrotation
										JOINT LeftHandPinky2
										{
											OFFSET -0.000000 3.350399 -0.000000
											CHANNELS 3 Zrotation Yrotation Xrotation
											JOINT LeftHandPinky3
											{
												OFFSET 0.000000 2.842763 0.000000
												CHANNELS 3 Zrotation Yrotation Xrotation
												JOINT LeftHandPinky4
												{
													OFFSET -0.000000 2.639709 0.000000
													CHANNELS 3 Zrotation Yrotation Xrotation
													End Site
													{
														OFFSET 0.000000 0.000000 0.000000
													}
												}
											}
										}
									}
									JOINT LeftForeArmEnd
									{
										OFFSET 0.000000 0.000000 0.000000
										CHANNELS 3 Zrotation Yrotation Xrotation
										End Site
										{
											OFFSET 0.000000 0.000000 0.000000
										}
									}
								}
								JOINT LeftArmEnd
								{
									OFFSET 0.000000 0.000000 0.000000
									CHANNELS 3 Zrotation Yrotation Xrotation
									End Site
									{
										OFFSET 0.000000 0.000000 0.000000
									}
								}
							}
						}
					}
				}
			}
		}
	}
	JOINT RightUpLeg
	{
		OFFSET -11.289943 0.000000 -0.000000
		CHANNELS 3 Zrotation Yrotation Xrotation
		JOINT RightLeg
		{
			OFFSET -0.000000 -38.200325 0.000000
			CHANNELS 3 Zrotation Yrotation Xrotation
			JOINT RightFoot
			{
				OFFSET 0.000000 -39.900856 0.000000
				CHANNELS 3 Zrotation Yrotation Xrotation
				JOINT RightToeBase
				{
					OFFSET -0.000000 0.000000 15.261641
					CHANNELS 3 Zrotation Yrotation Xrotation
					JOINT RightToeBaseEnd
					{
						OFFSET -0.000000 -0.000000 7.370709
						CHANNELS 3 Zrotation Yrotation Xrotation
						End Site
						{
							OFFSET 0.000000 0.000000 0.000000
						}
					}
				}
				JOINT RightLegEnd
				{
					OFFSET 0.000000 0.000000 0.000000
					CHANNELS 3 Zrotation Yrotation Xrotation
					End Site
					{
						OFFSET 0.000000 0.000000 0.000000
					}
				}
			}
			JOINT RightUpLegEnd
			{
				OFFSET 0.000000 0.000000 0.000000
				CHANNELS 3 Zrotation Yrotation Xrotation
				End Site
				{
					OFFSET 0.000000 0.000000 0.000000
				}
			}
		}
	}
	JOINT LeftUpLeg
	{
		OFFSET 11.315661 0.000000 -0.000000
		CHANNELS 3 Zrotation Yrotation Xrotation
		JOINT LeftLeg
		{
			OFFSET -0.000000 -38.200325 -0.000000
			CHANNELS 3 Zrotation Yrotation Xrotation
			JOINT LeftFoot
			{
				OFFSET -0.000000 -39.900856 0.000000
				CHANNELS 3 Zrotation Yrotation Xrotation
				JOINT LeftToeBase
				{
					OFFSET -0.000000 -0.000000 15.261641
					CHANNELS 3 Zrotation Yrotation Xrotation
					JOINT LeftToeBaseEnd
					{
						OFFSET 0.000000 0.000000 7.539996
						CHANNELS 3 Zrotation Yrotation Xrotation
						End Site
						{
							OFFSET 0.000000 0.000000 0.000000
						}
					}
				}
				JOINT LeftLegEnd
				{
					OFFSET 0.000000 0.000000 0.000000
					CHANNELS 3 Zrotation Yrotation Xrotation
					End Site
					{
						OFFSET 0.000000 0.000000 0.000000
					}
				}
			}
			JOINT LeftUpLegEnd
			{
				OFFSET 0.000000 0.000000 0.000000
				CHANNELS 3 Zrotation Yrotation Xrotation
				End Site
				{
					OFFSET 0.000000 0.000000 0.000000
				}
			}
		}
	}
}
MOTION
Frames: 4
Frame Time: 0.016667
2.508732 86.567986 13.437004 1.026772 -0.982771 -11.775323 -0.967961 0.469019 6.952615 1.174916 0.087581 1.545118 -2.219917 1.407184 13.888144 -1.576073 0.280813 0.897115 8.589568 -2.936895 11.115272 -2.770400 -3.303893 -6.869780 2.031412 3.355737 -24.127649 0.000000 0.000000 0.000000 96.356377 -0.626223 5.615424 64.089050 -31.702936 2.505890 2.126244 20.755472 30.993994 -1.890333 19.892588 -13.518106 11.662382 -1.903367 39.441479 0.000014 0.000021 -28.533499 0.000015 0.000048 -19.854656 -0.000005 0.000002 -0.000039 21.051361 0.052215 -8.254079 13.671708 0.092643 -0.199050 13.589190 0.104976 -0.196799 -0.000010 0.000023 -0.000023 20.124058 -0.004108 -9.445033 13.750496 0.042094 -0.091431 13.702071 0.037560 -0.063989 -0.000014 -0.000025 -0.000000 20.701584 -0.025891 -9.326141 14.274026 -0.067206 0.127658 14.287554 -0.063844 0.078631 -0.000022 -0.000483 0.000032 20.216982 -0.072103 -11.117526 13.766827 -0.185822 0.525637 13.716088 -0.179999 0.325491 0.000098 -0.000007 0.000009 0.000000 0.000000 0.000000 0.000000 0.000000 0.000000 -92.830948 0.101522 4.130147 -59.493294 30.458162 -0.193330 -1.862995 -11.400515 52.121925 6.365044 -12.510792 -19.846037 -11.119213 1.928916 39.534012 -0.000024 0.000017 -27.877934 -0.000031 -0.000030 -19.205212 -0.000120 -0.000025 0.000083 -24.464348 0.103501 -17.835407 -15.855041 0.037719 -0.068195 -16.092449 0.051366 0.009879 0.000025 -0.000605 0.000003 -25.075275 0.049043 -17.230122 -16.673861 0.012352 0.002743 -16.731337 0.018181 0.003414 -0.000356 -0.000079 0.000029 -29.427776 0.045989 -13.725619 -19.335680 -0.022849 -0.086127 -19.580870 -0.024838 -0.051488 -0.000395 0.000017 0.000001 -30.747044 0.077156 -10.861761 -20.177494 -0.061403 -0.258017 -20.134739 -0.091245 -0.254528 -0.000403 0.000001 -0.000049 0.000000 0.000000 0.000000 0.000000 0.000000 0.000000 -10.065859 -1.839215 10.181259 -0.356248 -0.931241 20.950926 4.448047 -15.303079 15.247167 -0.581161 -0.781127 -29.228710 0.000000 0.000000 0.000000 0.000000 0.000000 0.000000 0.000000 0.000000 0.000000 1.365743 2.171197 10.671510 0.176747 0.774263 15.348207 3.607188 5.493135 13.405342 0.128885 0.360385 -27.569317 0.000000 0.000000 0.000000 0.000000 0.000000 0.000000 0.000000 0.000000 0.000000 
2.099984 86.606445 13.471962 0.822701 -1.088061 -11.869102 -0.835383 0.432092 6.963698 1.128143 0.093336 1.605515 -2.025922 1.190148 13.819858 -1.579902 0.240289 0.926245 8.755716 -2.947046 11.147325 -2.755886 -3.258777 -6.874767 2.006107 3.353899 -24.201250 0.000000 0.000000 0.000000 96.357666 -0.634628 5.501651 64.051697 -31.486597 2.389659 2.148755 20.800417 30.941475 -1.819535 19.352718 -13.521109 11.680164 -1.904571 39.434910 0.000014 0.000021 -28.576851 0.000015 0.000048 -19.881275 -0.000004 0.000003 -0.000039 21.054609 0.053904 -8.259113 13.640915 0.095762 -0.207289 13.545096 0.108365 -0.203619 -0.000010 0.000023 -0.000023 20.095158 -0.003829 -9.451138 13.697318 0.042922 -0.093361 13.656746 0.037749 -0.064923 -0.000014 -0.000029 -0.000000 20.626301 -0.025857 -9.394126 14.187267 -0.067454 0.126350 14.190125 -0.063962 0.077176 -0.000021 -0.000345 0.000032 20.105930 -0.069226 -11.235600 13.639001 -0.186921 0.515758 13.589197 -0.180274 0.317543 0.000131 -0.000007 0.000009 0.000000 0.000000 0.000000 0.000000 0.000000 0.000000 -92.823502 0.099672 4.051561 -59.802475 30.077215 -0.234068 -1.820512 -11.409728 52.384369 6.431937 -12.260213 -19.756342 -11.082661 1.922731 39.553150 -0.000024 0.000016 -27.794504 -0.000027 -0.000030 -19.152195 -0.000082 -0.000026 0.000061 -24.221840 0.102681 -17.673113 -15.738008 0.040073 -0.069393 -15.973566 0.053391 0.006347 0.000025 -0.000564 0.000004 -24.817307 0.048412 -17.124229 -16.544163 0.012931 0.001444 -16.594442 0.018585 0.002315 -0.000417 -0.000078 0.000025 -29.133121 0.046535 -13.729372 -19.163361 -0.023847 -0.086573 -19.420212 -0.025105 -0.049037 -0.000472 0.000017 0.000001 -30.413099 0.084070 -10.950534 -19.991144 -0.064419 -0.255326 -19.952639 -0.094120 -0.248641 -0.000393 0.000001 -0.000049 0.000000 0.000000 0.000000 0.000000 0.000000 0.000000 -9.516168 -1.819875 10.517744 -0.347186 -0.916455 20.558693 4.083054 -15.303721 15.275799 -0.553949 -0.768913 -29.212332 0.000000 0.000000 0.000000 0.000000 0.000000 0.000000 0.000000 0.000000 0.000000 1.896497 2.096336 10.812614 0.185176 0.806321 15.340247 3.250956 5.366363 13.413654 0.163663 0.358493 -27.607903 0.000000 0.000000 0.000000 0.000000 0.000000 0.000000 0.000000 0.000000 0.000000 
1.689116 86.639435 13.498149 0.602831 -1.173475 -11.947847 -0.703285 0.396799 6.968052 1.078364 0.099288 1.677984 -1.813508 0.949164 13.724549 -1.579699 0.190937 0.964751 8.896751 -2.951222 11.206635 -2.743290 -3.212137 -6.869271 1.974604 3.349274 -24.272350 0.000000 0.000000 0.000000 96.340523 -0.636688 5.374207 64.049232 -31.219679 2.223483 2.169506 20.846579 30.938557 -1.836517 18.945745 -13.513968 11.689747 -1.905716 39.431000 0.000015 0.000021 -28.601681 0.000016 0.000048 -19.894169 -0.000004 0.000003 -0.000038 21.016872 0.055992 -8.289587 13.582150 0.097708 -0.214198 13.474857 0.110695 -0.209468 -0.000010 0.000023 -0.000024 20.031490 -0.003481 -9.481725 13.615614 0.043283 -0.095099 13.583962 0.037663 -0.065857 -0.000014 -0.000032 -0.000001 20.534344 -0.026065 -9.492894 14.073903 -0.066880 0.125872 14.064199 -0.063591 0.076326 -0.000021 -0.000202 0.000032 19.996004 -0.067316 -11.382595 13.488327 -0.186125 0.508909 13.440964 -0.179440 0.312835 0.000142 -0.000007 0.000009 0.000000 0.000000 0.000000 0.000000 0.000000 0.000000 -92.791626 0.090826 3.993673 -60.178493 29.699760 -0.288235 -1.791377 -11.403213 52.606274 6.575908 -12.195813 -19.689486 -11.017812 1.913924 39.586544 -0.000024 0.000016 -27.637602 -0.000024 -0.000030 -19.044878 -0.000030 -0.000026 0.000016 -23.817984 0.101862 -17.490881 -15.529844 0.041091 -0.070415 -15.762409 0.054126 0.002881 0.000024 -0.000538 0.000004 -24.396931 0.047828 -17.005190 -16.315094 0.012961 0.000152 -16.358742 0.018637 0.001347 -0.000458 -0.000077 0.000023 -28.654831 0.046713 -13.734578 -18.864098 -0.023671 -0.086035 -19.131725 -0.024764 -0.046153 -0.000530 0.000017 0.000001 -29.904663 0.088921 -11.056638 -19.677618 -0.064307 -0.249429 -19.643682 -0.094725 -0.240454 -0.000372 0.000001 -0.000049 0.000000 0.000000 0.000000 0.000000 0.000000 0.000000 -8.953591 -1.817145 10.816266 -0.337702 -0.899592 20.184908 3.726669 -15.334435 15.316432 -0.526250 -0.759536 -29.197212 0.000000 0.000000 0.000000 0.000000 0.000000 0.000000 0.000000 0.000000 0.000000 2.432898 1.999666 10.904568 0.194360 0.837542 15.384225 2.892658 5.235046 13.411727 0.196760 0.358286 -27.652014 0.000000 0.000000 0.000000 0.000000 0.000000 0.000000 0.000000 0.000000 0.000000 
1.276798 86.666946 13.516514 0.368918 -1.240867 -12.009845 -0.572238 0.362563 6.963390 1.020801 0.105625 1.759622 -1.581461 0.679860 13.598243 -1.570579 0.131377 1.012331 9.016386 -2.947026 11.292864 -2.732051 -3.155652 -6.851091 1.935676 3.342536 -24.341713 0.000000 0.000000 0.000000 96.302216 -0.632233 5.237812 64.071068 -30.913435 2.029322 2.186998 20.896294 30.986887 -1.952072 18.640156 -13.483182 11.690511 -1.906366 39.430878 0.000015 0.000020 -28.605150 0.000016 0.000048 -19.891649 -0.000004 0.000003 -0.000038 20.937307 0.058244 -8.331935 13.505477 0.098487 -0.220006 13.388856 0.111947 -0.214712 -0.000011 0.000023 -0.000024 19.932505 -0.003167 -9.523363 13.516458 0.043201 -0.096790 13.494514 0.037366 -0.066945 -0.000014 -0.000035 -0.000001 20.418331 -0.026444 -9.605953 13.945662 -0.065591 0.126319 13.923083 -0.062816 0.076255 -0.000020 -0.000056 0.000032 19.871315 -0.066453 -11.541508 13.325277 -0.183419 0.505118 13.280765 -0.177442 0.311322 0.000135 -0.000006 0.000008 0.000000 0.000000 0.000000 0.000000 0.000000 0.000000 -92.735252 0.074023 3.957233 -60.598206 29.340508 -0.345165 -1.776223 -11.395873 52.763687 6.764421 -12.274273 -19.638720 -10.928755 1.902842 39.632225 -0.000024 0.000016 -27.416672 -0.000021 -0.000031 -18.890745 0.000032 -0.000027 -0.000061 -23.275774 0.100937 -17.297308 -15.244118 0.040638 -0.072051 -15.473106 0.053451 -0.001156 0.000023 -0.000530 0.000005 -23.841280 0.047243 -16.879562 -16.003033 0.012402 -0.001339 -16.040266 0.018308 0.000347 -0.000484 -0.000076 0.000022 -28.032696 0.046581 -13.740436 -18.464130 -0.022346 -0.084286 -18.741369 -0.023840 -0.042800 -0.000555 0.000017 0.000001 -29.265362 0.091546 -11.176461 -19.266449 -0.061153 -0.239913 -19.236160 -0.093048 -0.229888 -0.000342 0.000001 -0.000048 0.000000 0.000000 0.000000 0.000000 0.000000 0.000000 -8.378821 -1.828515 11.071930 -0.327898 -0.880695 19.830729 3.382447 -15.395099 15.371096 -0.498373 -0.753230 -29.183226 0.000000 0.000000 0.000000 0.000000 0.000000 0.000000 0.000000 0.000000 0.000000 2.976529 1.885180 10.948792 0.204418 0.867956 15.472612 2.532118 5.104107 13.399308 0.228528 0.359784 -27.699852 0.000000 0.000000 0.000000 0.000000 0.000000 0.000000 0.000000 0.000000 0.000000 
